/* XPM */
static char * close_active_xpm[] = {
"43 25 4 1",
" 	c None",
".	c #C05050",
"+	c #FFFFFF",
"@	c #CECECE",
"...........................................",
"...........................................",
"...........................................",
"...........................................",
"...........................................",
"..................++....++.................",
"...................++..++..................",
"....................++++...................",
".....................++....................",
"....................++++...................",
"...................++..++..................",
"..................++....++.................",
"...........................................",
"...........................................",
"...........................................",
"...........................................",
"...........................................",
"@@@@@@@@@@@@@@@@@@@@@@@@@@@@@@@@@@@@@@@@@@@",
"@@@@@@@@@@@@@@@@@@@@@@@@@@@@@@@@@@@@@@@@@@@",
"@@@@@@@@@@@@@@@@@@@@@@@@@@@@@@@@@@@@@@@@@@@",
"@@@@@@@@@@@@@@@@@@@@@@@@@@@@@@@@@@@@@@@@@@@",
"@@@@@@@@@@@@@@@@@@@@@@@@@@@@@@@@@@@@@@@@@@@",
"@@@@@@@@@@@@@@@@@@@@@@@@@@@@@@@@@@@@@@@@@@@",
"@@@@@@@@@@@@@@@@@@@@@@@@@@@@@@@@@@@@@@@@@@@",
"@@@@@@@@@@@@@@@@@@@@@@@@@@@@@@@@@@@@@@@@@@@"};
