/* XPM */
static char * hide_prelight_xpm[] = {
"24 25 5 1",
" 	c None",
".	c #5050A2",
"+	c #5050A8",
"@	c #FFFFFF",
"#	c #CECECE",
"                        ",
"........................",
"........................",
".......+++++++++........",
".....+++++++++++++......",
".....+++++++++++++......",
"......++++++++++++......",
"......+++....+++++......",
"......++++++++++++......",
"......++++++++++++......",
"......++@@@@@@@@++......",
".....+++@@@@@@@@++......",
".....+++++++++++++......",
"......+...++++++++......",
"........................",
"........................",
"........................",
"++++++++++++++++++++++++",
"########################",
"########################",
"########################",
"########################",
"########################",
"########################",
"########################"};
