/* XPM */
static char * hide_inactive_xpm[] = {
"24 25 3 1",
" 	c None",
".	c #CECECE",
"+	c #707070",
"                        ",
"........................",
"........................",
"........................",
"........................",
"........................",
"........................",
"........................",
"........................",
"........................",
"........++++++++........",
"........++++++++........",
"........................",
"........................",
"........................",
"........................",
"........................",
"........................",
"........................",
"........................",
"........................",
"........................",
"........................",
"........................",
"........................"};
