/* XPM */
static char * hide_active_xpm[] = {
"24 25 3 1",
" 	c None",
".	c #CECECE",
"+	c #383838",
"                        ",
"........................",
"........................",
"........................",
"........................",
"........................",
"........................",
"........................",
"........................",
"........................",
"........++++++++........",
"........++++++++........",
"........................",
"........................",
"........................",
"........................",
"........................",
"........................",
"........................",
"........................",
"........................",
"........................",
"........................",
"........................",
"........................"};
