/* XPM */
static char * menu_prelight_xpm[] = {
"20 24 18 1",
" 	c None",
".	c #CECECE",
"+	c #8EA9BC",
"@	c #84A8C3",
"#	c #84A7C2",
"$	c #87A8C1",
"%	c #DADADA",
"&	c #8AA8BF",
"*	c #DDDDDD",
"=	c #D8D8D8",
"-	c #89A8BF",
";	c #85A8C2",
">	c #D9D9D9",
",	c #D1D1D1",
"'	c #8CA8BD",
")	c #8BA9BF",
"!	c #C6C6C6",
"~	c #D2D2D2",
"                    ",
"....................",
"....................",
"....................",
"....................",
"....................",
"....................",
"....................",
"....................",
"....................",
"....................",
"....................",
"......+@@@@@#$......",
"......%&@@@@$*......",
".......=-@@;>.......",
"........,')=........",
".........!~.........",
"....................",
"....................",
"....................",
"....................",
"....................",
"....................",
"...................."};
