/* XPM */
static char * menu_pressed_xpm[] = {
"20 24 20 1",
" 	c None",
".	c #CECECE",
"+	c #CFCFCF",
"@	c #6F6F6F",
"#	c #373737",
"$	c #343434",
"%	c #636363",
"&	c #D8D8D8",
"*	c #757575",
"=	c #454545",
"-	c #696969",
";	c #DEDEDE",
">	c #5B5B5B",
",	c #4E4E4E",
"'	c #6A6A6A",
")	c #D9D9D9",
"!	c #D1D1D1",
"~	c #5C5C5C",
"{	c #C6C6C6",
"]	c #D2D2D2",
"                    ",
"....................",
"....................",
"....................",
"....................",
"....................",
"....................",
"....................",
"....................",
"....................",
"....................",
"......++++++++......",
"......@#$$$$$%......",
"......&*====-;......",
".......&>,,').......",
"........!~%)........",
".........{].........",
"....................",
"....................",
"....................",
"....................",
"....................",
"....................",
"...................."};
