/* XPM */
static char * menu_inactive_xpm[] = {
"20 24 16 1",
" 	c None",
".	c #CECECE",
"+	c #ACACAC",
"@	c #959595",
"#	c #AEAEAE",
"$	c #D8D8D8",
"%	c #9F9F9F",
"&	c #B1B1B1",
"*	c #DDDDDD",
"=	c #A9A9A9",
"-	c #A4A4A4",
";	c #D9D9D9",
">	c #D1D1D1",
",	c #AAAAAA",
"'	c #C6C6C6",
")	c #D2D2D2",
"                    ",
"....................",
"....................",
"....................",
"....................",
"....................",
"....................",
"....................",
"....................",
"....................",
"....................",
"....................",
"......+@@@@@@#......",
"......$+%%%%&*......",
".......$=--#;.......",
"........>,#$........",
".........').........",
"....................",
"....................",
"....................",
"....................",
"....................",
"....................",
"...................."};
