/* XPM */
static char * menu_active_xpm[] = {
"20 24 19 1",
" 	c None",
".	c #CECECE",
"+	c #CFCFCF",
"@	c #D0D0D0",
"#	c #D1D1D1",
"$	c #8E8E8E",
"%	c #5E5E5E",
"&	c #8F8F8F",
"*	c #D8D8D8",
"=	c #949494",
"-	c #727272",
";	c #989898",
">	c #DDDDDD",
",	c #8B8B8B",
"'	c #7C7C7C",
")	c #D9D9D9",
"!	c #919191",
"~	c #C5C5C5",
"{	c #D2D2D2",
"                    ",
"....................",
"....................",
"....................",
"....................",
"....................",
"....................",
"....................",
"....................",
"....................",
"....................",
"......++@@@@@#......",
"......$%%%%%%&+.....",
"......*=----;>......",
".......*,''&).......",
"........#,!*........",
".........~{.........",
"....................",
"....................",
"....................",
"....................",
"....................",
"....................",
"...................."};
